<svg version="1.2" baseProfile="tiny-ps" xmlns="http://www.w3.org/2000/svg" viewBox="0 0 433 432" width="433" height="433">
	<title>icon-removebg-preview-svg</title>
	<style>
		tspan { white-space:pre }
		.shp0 { fill: #6777ef } 
	</style>
	<g id="Layer">
		<path id="Layer" fill-rule="evenodd" class="shp0" d="M310.5 79.6C315.3 82.8 316.1 83.7 318.2 88C321.3 94.6 322.1 103.5 320.5 115.5C319.8 121.5 318.6 128.3 318 130.5C317.3 132.7 316.4 136.3 315.8 138.5C312.4 151 309.5 158.7 301.4 175.5C300.1 178.3 299 180.9 299 181.3C299 182.3 288.6 203.6 287.3 205.3C286.8 206 285.7 208.1 285 210C284.2 211.9 283.3 213.7 282.9 214C282.6 214.3 281.3 216.5 280.1 219C278.9 221.5 277.1 224.8 276 226.5C274.9 228.1 273.4 230.9 272.7 232.5C271 236.3 253.1 265.3 252.1 266C251.7 266.3 250.5 268 249.4 269.9C248.4 271.8 246.8 274.2 246 275.1C243.8 277.6 242.8 279 239.5 283.7C235.1 289.9 230.3 291.1 225.8 287.2C222.8 284.6 223.8 281.5 230.4 272.3L236.7 263.5L233.8 263.2C232.2 263 229 263.5 226.7 264.3C224.4 265.1 220 266.3 217 267C211.7 268.2 205 270.8 204 272.1C203.7 272.4 202.1 273.5 200.3 274.4C198.6 275.3 196.8 276.4 196.5 277C195.9 277.9 198.1 281 199.4 281C199.7 281 201.2 282.2 202.7 283.6C204.2 285 209.1 288.9 213.5 292.1C217.9 295.4 222.2 298.6 223 299.3C223.8 300 227.2 302.3 230.5 304.5C233.8 306.7 236.7 308.7 237 309C237.3 309.3 239.2 310.4 241.3 311.5C243.3 312.6 245 313.7 245 314.1C245 314.5 245.8 315 246.8 315.4C247.7 315.7 250.8 317.3 253.5 318.9C261.8 323.8 280.6 333 282.2 333C283 333 284 333.4 284.5 333.9C287.4 336.7 315 343.9 323.1 344C328.2 344 337 341.2 340.9 338.3C349.3 331.9 350.3 318.6 343.8 300.1C342.8 297.2 342.2 294 342.5 293C343.8 288.9 349.1 290.2 350.9 295C351.4 296.4 352.7 299.8 353.8 302.6C357.1 311.3 358.5 322.8 357.1 329.8C355.7 337.2 353.9 341 349.5 345.4C338.4 356.9 317.2 359 290.5 351.5C287.2 350.6 283 349.5 281.1 349C279.3 348.5 277.3 347.7 276.7 347.1C276.1 346.5 274.8 346 273.8 346C272.8 346 271.2 345.6 270.2 345.1C269.3 344.6 262.2 341.1 254.5 337.4C242.9 331.8 233.3 326.4 216.6 315.7C215.5 315 213.8 313.7 212.8 312.7C211.8 311.8 210.6 311 210.2 311C209.7 311 208.5 310.2 207.4 309.2C206.4 308.3 202.8 305.5 199.5 303C196.2 300.6 192.6 297.7 191.5 296.7C188.3 293.7 186 292.7 185.6 294.2C185.4 294.9 184.7 297.5 184.1 300C182.7 305.4 178.1 316.9 176.5 319C175.9 319.8 174.5 322.2 173.5 324.2C172.4 326.3 171.2 328 170.8 328C170.3 328 170 328.4 170 328.9C170 329.4 168.7 331.1 167.2 332.7C153.3 346.6 140.4 347.5 126.2 335.6C123.1 333 118.6 329.6 116.3 327.9C102.8 318.6 96.4 293.4 98.9 260.1C99.6 251.5 100.7 242.5 101.5 240C102.2 237.5 103.1 234.4 103.3 233C103.6 231.6 104.3 228.6 104.9 226.3C105.8 222.8 105.6 221.3 103.4 215.3C99.7 205.5 97.8 195.4 98.6 189.6C99.2 184.8 99.3 184.7 100.5 187.1C101.2 188.4 103.1 193.6 104.8 198.6C106.5 203.6 108.8 209.2 109.9 211.1C111 213 112.4 215.4 112.9 216.5C114.3 219.8 123.1 229 124.7 229C125.5 229 126 228.7 125.8 228.2C119.5 215.6 116 207.9 116 207.1C116 206.5 115.6 205.2 115 204.2C113.4 201.4 108.9 189.9 106.9 183.6C105.6 179.7 105 174.8 105 169C105 161.4 105.4 159.3 107.9 153.8C114.3 139.7 127.8 133.9 149.1 136.1C164 137.6 179.9 142.9 200.5 153.2C216.3 161 218.2 162.1 219.2 163.5C219.6 164.1 221.1 163.4 222.7 161.8C229.1 155.8 239.1 152 248.5 152C254.7 152.1 264.1 153.9 267.5 155.8C268.6 156.4 271.5 157.7 274 158.8C276.5 159.9 281.5 162.8 285.2 165.2C291.6 169.6 291.8 169.6 292.8 167.6C295.6 161.8 299 154 299 153.5C299 153.1 299.6 151.4 300.4 149.7C306.9 135.3 312 114.7 312 103.3C312 90.9 309.1 87 299.5 87C290.8 87 284 89.8 269.5 99.4C266.2 101.6 263.4 103.7 263.2 104.2C263 104.6 262.4 105 261.9 105C261.4 105 260.2 105.8 259.1 106.7C258.1 107.7 255.5 109.8 253.4 111.5C251.3 113.1 242.4 121.6 233.6 130.2C219.7 144 214 148.3 214 145.1C214 144 218.9 137.9 223.3 133.6C225.3 131.6 227 129.8 227 129.6C227 128 256.7 99.9 262.3 96.2C264.3 94.9 266 93.4 266 92.9C266 92.5 266.8 91.9 267.8 91.6C268.8 91.2 270.5 90.2 271.6 89.2C275.3 86 285.8 80.6 292.3 78.5C299.5 76.3 306.2 76.6 310.5 79.6ZM134.5 145.4C128.2 146.8 125.2 148.4 121.7 152.4C118.1 156.4 117.5 158.9 117.6 168C117.6 173.6 118.3 177.5 120.5 183.5C124.6 195.3 126.7 197.9 129.8 194.8C134.9 189.7 155.5 189.6 171.9 194.6C179.2 196.9 186.8 196.4 192.5 193.4C198.2 190.3 207.3 181.5 211.6 175C213.2 172.5 215.2 170 216 169.3C216.8 168.7 217.3 168 217 167.7C216.1 167 195.6 157.3 191.5 155.7C174.3 149 169.4 147.6 156.5 145.5C146.1 143.8 141.5 143.8 134.5 145.4ZM245.6 175.5C241.7 177.6 240.1 179.9 240 183.6C240 190.2 247.4 192.2 252.9 187.1C256.4 183.8 257.2 178.3 254.4 175.6C252.5 173.6 249.3 173.6 245.6 175.5ZM232.4 198C227.3 200 225.2 208.1 228.8 211.3C231.9 214.1 237 213.2 241 209.2C243 207.1 243 199.3 241 198C239.2 196.8 235.2 196.8 232.4 198ZM257.7 206C249.3 206 244.7 215.2 250.6 219.9C254 222.5 254.9 222.5 259.1 219.7C263.1 217 264.9 212.2 263.2 208.5C262.2 206.4 261.4 206 257.7 206ZM137.5 239.3C135.9 242.4 135.8 243.4 136.8 246.8C138.4 252 138.5 251.7 134.5 253C129.1 254.8 126 258.7 126 263.6C126 266.3 126.6 268.3 127.8 269.3C130.1 271.4 135.9 271.5 138.8 269.4C141.7 267.4 144 268.3 144 271.4C144 274.4 148.6 279 151.6 279C152.8 279 155.6 277.6 158 275.9L162.2 272.8L161.4 259.8L165.6 257.8C171.5 255.1 173.1 252.9 173.2 247.9C173.2 244.6 172.7 243.3 170.9 241.9C168 239.7 165.8 239.6 160.5 241.4C155.8 243.1 155.4 242.9 154.5 239C154.1 237.3 152.9 235.3 151.7 234.5C147.2 231.3 140.6 233.6 137.5 239.3Z" />
		<path id="Layer" class="shp0" d="M142 155.3C134.2 157.5 131.2 159.3 129.1 163.1C127.1 166.6 126.4 170 127.6 170C127.9 170 130 169 132.3 167.7C143.6 161.5 156.6 161 174.3 166.2C178.9 167.6 180 166.7 176.9 164.1C168.6 157.3 150.9 152.8 142 155.3Z" />
		<path id="Layer" class="shp0" d="M321.1 146.6C320.4 149.3 319.2 153.1 318.5 155C317.8 156.9 316.7 160.3 316.1 162.5C314 169.4 304.7 190 300 198C299.5 198.8 297.6 202.6 295.7 206.5C293.7 210.3 290.6 216.4 288.6 220C286.7 223.6 283.4 229.6 281.4 233.5C279.5 237.3 276.5 242.7 274.9 245.5C273.3 248.2 271.5 251.4 271 252.5C267.4 259.8 256.8 278.4 256 279C254.8 279.8 253.8 284 254.8 284C255.3 284 258.4 281.4 261.8 278.2L267.9 272.4L273.7 275.5C297.9 288.3 315.8 289.2 327 278C332.5 272.5 335.1 265.4 335.5 254.7C335.6 251.3 336.1 245.6 336.5 242C337.4 233.9 336 226.8 331.9 218.6C327.6 210.1 321.9 201 320.9 201C320.4 201 320 200.5 320 200C320 199.4 319.1 197.9 317.9 196.7C315.7 194.3 315.8 192.3 318.5 182.5C321.9 170.1 322.9 164.9 323.5 156C323.9 150.8 323.8 145.4 323.3 144.1C322.4 141.9 322.2 142.1 321.1 146.6Z" />
		<path id="Layer" class="shp0" d="M333 199.3C333 200.1 333.7 201.3 334.5 202C335.3 202.7 336 203.8 336 204.5C336 205.3 336.3 206 336.8 206.2C338 206.7 341.4 214.6 344.6 224C345.8 227.8 346.4 232.6 346.4 239.7C346.5 245.4 346.7 250 347 250C348.7 250 354 236 354 231.5C354 228.8 350.8 218.6 348.7 214.6C345.2 208 333 196.1 333 199.3Z" />
		<path id="Layer" class="shp0" d="M86.5 242.6C77.8 252.1 73.7 267.6 75.9 282.8C77.8 296.2 81.1 304.9 87.8 314C91.8 319.4 96.2 322.2 94.5 318.2C92.9 314.6 90.2 305.2 88.5 297.5C86.2 287.6 85.9 257.2 88 250C90 242.8 90.8 239 90.3 239C90 239 88.3 240.6 86.5 242.6Z" />
		<path id="Layer" class="shp0" d="M192.7 315.8C190.3 318.4 191.2 321.5 195.4 325.2C197.9 327.5 199.5 328 203.7 328C207.9 328 209.1 327.6 210 326C211.4 323.4 210.4 320.2 207.3 317.1C203.9 313.6 195.3 312.9 192.7 315.8Z" />
	</g>
</svg>